<svg width="204" height="204" viewBox="0 0 204 204" fill="none" xmlns="http://www.w3.org/2000/svg">
<circle cx="102" cy="102" r="99.5" stroke="#86C232" stroke-width="5"/>
<circle cx="102" cy="101" r="85" stroke="#86C232" stroke-width="4"/>
<path d="M107.706 81.101C106.646 82.5189 106.735 84.9742 108.278 85.7199C110.623 86.8535 112.856 84.1802 112.856 84.1802M112.281 78.7931C112.281 78.7931 111.708 75.7138 111.708 75.098C111.708 74.4822 116 76.9455 116 77.5614C116 78.1773 112.281 78.7931 112.281 78.7931Z" stroke="#86C232" stroke-width="3" stroke-linecap="round"/>
<path d="M134.845 90.1213C128.695 88.6539 129.003 100.981 129.003 100.981C129.003 100.981 140.073 102.448 141.303 101.861C142.533 101.274 143.364 100.394 142.841 98.6329C142.318 96.8719 138.902 96.5784 136.075 96.5784C136.075 96.5784 137.36 90.7214 134.845 90.1213Z" stroke="#86C232" stroke-width="3"/>
<path d="M81.9386 69.1884C78.0901 74.1714 89.9629 79.036 89.9629 79.036C89.9629 79.036 95.7712 69.5767 95.7016 68.2127C95.632 66.8487 95.1235 65.7258 93.2366 65.4665C91.3497 65.2073 89.7095 68.1923 88.5835 70.764C88.5835 70.764 83.5124 67.1508 81.9386 69.1884Z" stroke="#86C232" stroke-width="3"/>
<path d="M132 80C132 80 123.403 76.0441 123.016 77.2196C122.744 78.0453 126.5 84.5 126.5 84.5" stroke="#86C232" stroke-width="3" stroke-linecap="round"/>
<path d="M105 64C105 64 108.56 68.3237 109.872 70.3154C111.184 72.3071 101 70.3154 101 70.3154" stroke="#86C232" stroke-width="3" stroke-linecap="round"/>
<path d="M72.6179 79.0922L71.2049 79.5955L71.281 79.8091L71.4168 79.9907L72.6179 79.0922ZM158.102 71.7462L159.44 71.0667L158.102 71.7462ZM149.97 120.719L148.489 120.956L149.97 120.719ZM114.75 35.0166L114.628 36.5117L114.75 35.0166ZM162.682 62.5638L163.864 61.6402L162.682 62.5638ZM160.078 76.3374L158.667 76.8464L160.078 76.3374ZM39.6453 134.493L38.1992 134.891L38.4371 135.754L39.3095 135.955L39.6453 134.493ZM53.3839 155L51.886 154.92L51.582 160.61L54.6483 155.807L53.3839 155ZM80.2505 153.47L79.0206 154.328L81.7386 153.282L80.2505 153.47ZM124.824 147.348L123.341 147.573L123.732 150.147L125.763 148.518L124.824 147.348ZM149.97 153.47L148.585 154.047L149.756 156.854L151.271 154.216L149.97 153.47ZM172.146 140.308L171.837 141.776L173.646 142.157V140.308H172.146ZM99.1792 126.228L98.9723 124.743L99.1792 126.228ZM138.868 143.675L139.223 142.218L138.868 143.675ZM160.078 141.532L159.327 140.234L160.078 141.532ZM121.161 123.474L120.774 124.923L121.006 124.985L121.245 124.971L121.161 123.474ZM80.2505 100.824L78.9384 101.551L80.2505 100.824ZM60.1005 85.5198H61.6005V85.4009L61.5818 85.2834L60.1005 85.5198ZM70.4808 109.394L71.3519 110.615L73.051 109.403L71.3605 108.179L70.4808 109.394ZM132.457 120.719L133.023 122.108L133.207 122.033L133.365 121.913L132.457 120.719ZM60.9562 122.979C61.6971 123.349 62.5981 123.049 62.9687 122.308C63.3392 121.567 63.0389 120.666 62.2979 120.296L60.9562 122.979ZM45.3307 137.16L44.4843 138.398L45.3307 137.16ZM138.868 138.778L137.551 138.06V138.06L138.868 138.778ZM158.102 113.873L156.818 113.098L158.102 113.873ZM159.629 123.474L159.12 122.063L158.889 122.146L158.697 122.298L159.629 123.474ZM71.0914 118.883L72.01 120.068L71.0914 118.883ZM80.8896 143.195L82.3536 143.522L80.8896 143.195ZM74.1096 79.2495C74.6305 74.3121 77.6729 67.313 82.7765 61.1904C87.8637 55.0875 94.8405 50.0452 103.077 48.7414L102.608 45.7783C93.4428 47.2291 85.8669 52.7976 80.4721 59.2695C75.0937 65.7218 71.7247 73.2615 71.1262 78.9348L74.1096 79.2495ZM114.871 33.5215C112.694 33.3446 110.752 34.2717 109.161 35.523C107.567 36.7768 106.186 38.4604 105.07 40.0872C103.946 41.7247 103.046 43.3693 102.429 44.5978C102.12 45.2141 101.879 45.7305 101.714 46.0954C101.632 46.278 101.569 46.423 101.526 46.5238C101.504 46.5743 101.487 46.6138 101.475 46.6414C101.47 46.6553 101.465 46.6662 101.462 46.674C101.46 46.6779 101.459 46.6811 101.458 46.6835C101.457 46.6847 101.457 46.6857 101.457 46.6865C101.457 46.6869 101.456 46.6873 101.456 46.6875C101.456 46.6879 101.456 46.6883 102.843 47.2598C104.23 47.8314 104.23 47.8316 104.229 47.8318C104.229 47.8318 104.229 47.832 104.229 47.832C104.229 47.8321 104.229 47.8319 104.23 47.8315C104.23 47.8308 104.23 47.8294 104.231 47.8271C104.233 47.8227 104.236 47.8153 104.241 47.8049C104.249 47.7843 104.263 47.752 104.282 47.709C104.319 47.6229 104.375 47.4937 104.45 47.3278C104.599 46.9958 104.822 46.5178 105.11 45.9442C105.688 44.7928 106.52 43.2754 107.543 41.7847C108.574 40.2833 109.755 38.8724 111.015 37.8812C112.279 36.8874 113.486 36.4189 114.628 36.5117L114.871 33.5215ZM103.077 48.7414C110.827 47.5146 118.027 47.7438 124.522 49.079L125.127 46.1405C118.266 44.7301 110.702 44.4971 102.608 45.7783L103.077 48.7414ZM114.628 36.5117C115.718 36.6002 116.821 37.2032 117.922 38.2744C119.018 39.3402 119.999 40.763 120.83 42.2396C121.655 43.7065 122.299 45.1684 122.738 46.2692C122.957 46.8177 123.123 47.2719 123.233 47.5864C123.288 47.7435 123.33 47.8654 123.357 47.9464C123.37 47.9869 123.38 48.0171 123.386 48.0364C123.389 48.046 123.391 48.0529 123.393 48.057C123.393 48.059 123.394 48.0603 123.394 48.0609C123.394 48.0612 123.394 48.0613 123.394 48.0612C123.394 48.0612 123.394 48.061 123.394 48.061C123.394 48.0608 123.394 48.0605 124.824 47.6098C126.255 47.159 126.255 47.1587 126.255 47.1582C126.255 47.158 126.255 47.1576 126.255 47.1572C126.254 47.1564 126.254 47.1554 126.254 47.1542C126.253 47.1519 126.252 47.1488 126.251 47.1451C126.248 47.1375 126.245 47.127 126.241 47.1138C126.232 47.0873 126.22 47.0496 126.204 47.0015C126.172 46.9052 126.125 46.767 126.064 46.5927C125.942 46.2443 125.761 45.7505 125.525 45.1582C125.054 43.9773 124.355 42.3864 123.445 40.7687C122.54 39.1606 121.395 37.467 120.014 36.1238C118.638 34.786 116.915 33.6876 114.871 33.5215L114.628 36.5117ZM124.522 49.079C134.475 51.1252 142.793 55.7727 148.918 61.7968L151.022 59.6579C144.478 53.2227 135.638 48.3015 125.127 46.1405L124.522 49.079ZM148.918 61.7968C152.187 65.0117 154.83 68.6166 156.765 72.4258L159.44 71.0667C157.351 66.9572 154.512 63.0911 151.022 59.6579L148.918 61.7968ZM149.97 60.7273C150.293 62.1921 150.293 62.1922 150.292 62.1922C150.292 62.1922 150.292 62.1923 150.292 62.1923C150.292 62.1923 150.292 62.1923 150.292 62.1923C150.292 62.1922 150.293 62.1921 150.295 62.1918C150.297 62.1911 150.303 62.19 150.31 62.1885C150.324 62.1854 150.348 62.1805 150.379 62.174C150.443 62.161 150.539 62.1418 150.665 62.1183C150.916 62.0714 151.283 62.0075 151.735 61.9423C152.643 61.8113 153.874 61.6778 155.185 61.6611C156.506 61.6442 157.848 61.747 159.003 62.056C160.166 62.3673 161.002 62.8501 161.5 63.4874L163.864 61.6402C162.815 60.2984 161.288 59.562 159.778 59.1579C158.26 58.7515 156.617 58.6425 155.147 58.6613C153.667 58.6802 152.3 58.8298 151.307 58.973C150.809 59.0449 150.4 59.1158 150.114 59.1694C149.97 59.1962 149.857 59.2187 149.778 59.2349C149.738 59.243 149.707 59.2495 149.685 59.2542C149.674 59.2566 149.666 59.2584 149.659 59.2598C149.656 59.2605 149.653 59.2611 149.651 59.2616C149.65 59.2618 149.649 59.262 149.649 59.2621C149.648 59.2622 149.648 59.2623 149.648 59.2624C149.647 59.2625 149.647 59.2625 149.97 60.7273ZM156.765 72.4258C157.478 73.8292 158.113 75.3089 158.667 76.8464L161.489 75.8284C160.896 74.1825 160.213 72.5881 159.44 71.0667L156.765 72.4258ZM161.5 63.4874C162.034 64.1705 162.273 65.1545 162.198 66.4476C162.124 67.7349 161.745 69.1663 161.236 70.5474C160.73 71.9172 160.121 73.1711 159.634 74.0875C159.392 74.5438 159.182 74.9119 159.034 75.1635C158.961 75.2892 158.903 75.3856 158.864 75.4491C158.845 75.4808 158.83 75.5043 158.821 75.5191C158.816 75.5265 158.813 75.5318 158.811 75.5348C158.81 75.5362 158.81 75.5372 158.809 75.5376C158.809 75.5378 158.809 75.5378 158.809 75.5377C158.809 75.5377 158.809 75.5375 158.81 75.5375C158.81 75.5372 158.81 75.537 160.078 76.3374C161.347 77.1378 161.347 77.1375 161.347 77.1371C161.348 77.137 161.348 77.1366 161.348 77.1362C161.348 77.1356 161.349 77.1348 161.35 77.1338C161.351 77.1319 161.352 77.1294 161.354 77.1263C161.358 77.1202 161.363 77.1118 161.37 77.1011C161.383 77.0799 161.402 77.0497 161.425 77.011C161.472 76.9338 161.539 76.8226 161.622 76.6811C161.788 76.3984 162.019 75.9934 162.283 75.4951C162.811 74.5023 163.484 73.1209 164.05 71.586C164.613 70.0623 165.095 68.3197 165.193 66.6205C165.291 64.9269 165.014 63.1119 163.864 61.6402L161.5 63.4874ZM17.9152 122.16C21.8848 121.017 25.0645 121.271 27.6121 122.212C30.1789 123.161 32.213 124.848 33.7998 126.735C35.3884 128.624 36.4952 130.672 37.2063 132.264C37.5602 133.056 37.8121 133.725 37.974 134.192C38.0549 134.425 38.113 134.606 38.1501 134.727C38.1686 134.787 38.1819 134.831 38.19 134.859C38.1941 134.873 38.1968 134.883 38.1984 134.888C38.1991 134.891 38.1996 134.892 38.1997 134.893C38.1998 134.893 38.1998 134.893 38.1997 134.893C38.1997 134.893 38.1996 134.892 38.1995 134.892C38.1994 134.892 38.1992 134.891 39.6453 134.493C41.0914 134.094 41.0912 134.093 41.091 134.093C41.0909 134.092 41.0907 134.091 41.0905 134.091C41.0901 134.089 41.0896 134.088 41.089 134.086C41.0879 134.082 41.0865 134.076 41.0847 134.07C41.0812 134.058 41.0763 134.041 41.0701 134.019C41.0577 133.977 41.04 133.917 41.0167 133.842C40.9701 133.691 40.9011 133.476 40.8081 133.208C40.6222 132.673 40.3393 131.922 39.9452 131.04C39.1603 129.283 37.9182 126.971 36.0956 124.804C34.271 122.635 31.8313 120.573 28.652 119.398C25.4536 118.216 21.6152 117.973 17.0848 119.278L17.9152 122.16ZM173.646 140.308C173.646 137.054 175.016 134.029 176.996 131.811C179.002 129.564 181.464 128.325 183.5 128.325V125.325C180.346 125.325 177.131 127.155 174.758 129.813C172.359 132.5 170.646 136.216 170.646 140.308H173.646ZM53.3839 155C54.6483 155.807 54.6479 155.808 54.6477 155.808C54.6476 155.808 54.6473 155.809 54.6472 155.809C54.6469 155.809 54.6467 155.81 54.6465 155.81C54.6462 155.81 54.6463 155.81 54.6466 155.81C54.6472 155.809 54.6489 155.806 54.6518 155.802C54.6576 155.793 54.6681 155.777 54.6831 155.755C54.7131 155.711 54.7615 155.641 54.8278 155.548C54.9606 155.364 55.165 155.093 55.439 154.763C55.9884 154.102 56.8095 153.217 57.8854 152.333C60.0416 150.561 63.1503 148.848 67.1225 148.848V145.848C62.2409 145.848 58.4803 147.961 55.9807 150.015C54.7286 151.044 53.7752 152.072 53.132 152.846C52.8097 153.233 52.5633 153.56 52.3944 153.794C52.3099 153.911 52.2446 154.005 52.1988 154.073C52.1759 154.107 52.1578 154.134 52.1446 154.154C52.138 154.164 52.1326 154.173 52.1284 154.179C52.1263 154.182 52.1246 154.185 52.1231 154.187C52.1223 154.189 52.1217 154.19 52.1211 154.19C52.1208 154.191 52.1204 154.192 52.1203 154.192C52.1199 154.192 52.1196 154.193 53.3839 155ZM67.1225 148.848C71.1824 148.848 74.169 150.246 76.1435 151.636C77.1343 152.333 77.8693 153.027 78.3509 153.54C78.5913 153.796 78.7673 154.005 78.8791 154.145C78.9349 154.214 78.9746 154.266 78.9982 154.298C79.01 154.314 79.0178 154.325 79.0215 154.33C79.0234 154.332 79.0242 154.334 79.0241 154.333C79.024 154.333 79.0237 154.333 79.0231 154.332C79.0228 154.331 79.0224 154.331 79.022 154.33C79.0218 154.33 79.0215 154.33 79.0214 154.329C79.021 154.329 79.0206 154.328 80.2505 153.47C81.4803 152.611 81.4799 152.61 81.4795 152.61C81.4793 152.609 81.4788 152.609 81.4785 152.608C81.4778 152.607 81.4771 152.606 81.4763 152.605C81.4746 152.603 81.4727 152.6 81.4706 152.597C81.4662 152.591 81.4608 152.583 81.4543 152.574C81.4413 152.556 81.424 152.533 81.4024 152.504C81.359 152.446 81.2982 152.366 81.2199 152.268C81.0634 152.073 80.8362 151.804 80.5376 151.486C79.9412 150.851 79.0543 150.015 77.8697 149.182C75.4937 147.51 71.9163 145.848 67.1225 145.848V148.848ZM99.386 127.714C104.59 126.99 108.617 127.884 111.752 129.56C114.906 131.246 117.252 133.775 118.986 136.455C120.721 139.137 121.815 141.928 122.476 144.061C122.805 145.124 123.023 146.015 123.159 146.635C123.226 146.945 123.273 147.186 123.302 147.347C123.317 147.427 123.327 147.487 123.334 147.525C123.337 147.544 123.339 147.558 123.34 147.566C123.341 147.57 123.341 147.572 123.342 147.574C123.342 147.574 123.342 147.574 123.342 147.574C123.342 147.574 123.342 147.574 123.342 147.574C123.342 147.573 123.341 147.573 124.824 147.348C126.308 147.123 126.307 147.123 126.307 147.122C126.307 147.121 126.307 147.12 126.307 147.12C126.307 147.118 126.306 147.116 126.306 147.114C126.305 147.109 126.304 147.103 126.303 147.095C126.301 147.08 126.297 147.059 126.293 147.032C126.284 146.979 126.271 146.904 126.254 146.808C126.219 146.616 126.165 146.34 126.09 145.995C125.939 145.304 125.699 144.33 125.342 143.174C124.628 140.869 123.433 137.806 121.504 134.826C119.575 131.843 116.883 128.901 113.167 126.914C109.433 124.918 104.759 123.937 98.9723 124.743L99.386 127.714ZM125.763 148.518C127.963 146.753 129.919 145.63 131.905 145.078C133.87 144.531 135.972 144.514 138.514 145.132L139.223 142.218C136.269 141.498 133.639 141.481 131.101 142.187C128.583 142.888 126.265 144.27 123.886 146.178L125.763 148.518ZM149.97 153.47C151.271 154.216 151.271 154.217 151.271 154.217C151.271 154.217 151.271 154.217 151.271 154.217C151.271 154.217 151.271 154.217 151.271 154.216C151.271 154.216 151.272 154.214 151.273 154.213C151.275 154.209 151.278 154.204 151.283 154.196C151.292 154.18 151.305 154.157 151.324 154.125C151.361 154.061 151.417 153.966 151.491 153.843C151.638 153.597 151.856 153.24 152.132 152.802C152.686 151.924 153.474 150.725 154.408 149.443C156.323 146.816 158.691 144.069 160.83 142.831L159.327 140.234C156.59 141.819 153.904 145.041 151.983 147.676C151 149.026 150.175 150.282 149.595 151.201C149.305 151.661 149.075 152.038 148.917 152.302C148.839 152.433 148.777 152.537 148.736 152.608C148.715 152.644 148.699 152.672 148.687 152.691C148.682 152.701 148.678 152.708 148.674 152.713C148.673 152.716 148.672 152.718 148.671 152.72C148.67 152.72 148.67 152.721 148.67 152.722C148.67 152.722 148.669 152.722 148.669 152.722C148.669 152.723 148.669 152.723 149.97 153.47ZM160.83 142.831C162.86 141.655 165.547 141.347 167.876 141.385C169.016 141.403 170.018 141.503 170.733 141.598C171.09 141.646 171.374 141.692 171.564 141.725C171.66 141.742 171.732 141.755 171.778 141.764C171.801 141.769 171.818 141.772 171.828 141.774C171.833 141.775 171.836 141.776 171.838 141.776C171.839 141.776 171.839 141.776 171.839 141.776C171.839 141.776 171.839 141.776 171.838 141.776C171.838 141.776 171.838 141.776 171.838 141.776C171.838 141.776 171.837 141.776 172.146 140.308C172.455 138.84 172.455 138.84 172.454 138.84C172.454 138.84 172.454 138.84 172.453 138.84C172.453 138.84 172.452 138.84 172.451 138.839C172.449 138.839 172.447 138.839 172.444 138.838C172.439 138.837 172.431 138.835 172.422 138.834C172.405 138.83 172.38 138.825 172.348 138.819C172.285 138.807 172.196 138.79 172.082 138.77C171.855 138.73 171.531 138.678 171.129 138.624C170.326 138.518 169.206 138.406 167.924 138.385C165.41 138.345 162.064 138.65 159.327 140.234L160.83 142.831ZM121.547 122.024C116.074 120.565 107.466 117.687 99.4899 113.822C95.5031 111.889 91.7076 109.726 88.5511 107.39C85.3797 105.043 82.9421 102.586 81.5625 100.097L78.9384 101.551C80.6118 104.571 83.428 107.331 86.7665 109.801C90.1199 112.283 94.0906 114.538 98.1814 116.521C106.361 120.486 115.155 123.424 120.774 124.923L121.547 122.024ZM81.5625 100.097C77.8414 93.3818 77.1352 89.6615 76.7769 86.8958C76.599 85.5229 76.4862 84.1212 76.1182 82.7457C75.731 81.2984 75.0689 79.8644 73.819 78.1936L71.4168 79.9907C72.4567 81.3807 72.9394 82.4719 73.2201 83.521C73.52 84.642 73.598 85.7081 73.8017 87.2812C74.2067 90.4075 75.027 94.4923 78.9384 101.551L81.5625 100.097ZM72.6179 79.0922C74.0309 78.5888 74.0306 78.5878 74.0302 78.5869C74.0301 78.5865 74.0298 78.5855 74.0295 78.5848C74.029 78.5834 74.0285 78.5819 74.0279 78.5804C74.0268 78.5773 74.0256 78.5739 74.0242 78.5703C74.0215 78.5631 74.0184 78.5547 74.0149 78.5454C74.0077 78.5266 73.9988 78.5038 73.9878 78.4771C73.966 78.4237 73.9364 78.3548 73.8979 78.273C73.8212 78.1098 73.7086 77.8932 73.5524 77.6458C73.2412 77.1528 72.7468 76.5214 72.0055 75.9516C70.4615 74.7648 68.0724 74.0173 64.6207 74.8824L65.3501 77.7924C68.0043 77.1271 69.4315 77.757 70.1773 78.3302C70.5808 78.6404 70.8498 78.9846 71.0156 79.2473C71.0979 79.3776 71.1522 79.4839 71.1829 79.5491C71.1981 79.5815 71.2072 79.6031 71.2107 79.6118C71.2125 79.6161 71.2128 79.6171 71.2118 79.6145C71.2113 79.6132 71.2105 79.611 71.2093 79.6078C71.2088 79.6063 71.2081 79.6044 71.2074 79.6024C71.207 79.6014 71.2066 79.6003 71.2062 79.5991C71.206 79.5986 71.2057 79.5977 71.2056 79.5974C71.2052 79.5965 71.2049 79.5955 72.6179 79.0922ZM64.6207 74.8824C60.8122 75.837 59.3149 78.7603 58.7875 81.1835C58.5254 82.3878 58.4845 83.5191 58.5056 84.3389C58.5163 84.7521 58.5429 85.0948 58.5676 85.339C58.58 85.4613 58.5919 85.5594 58.6012 85.63C58.6059 85.6653 58.6099 85.6937 58.613 85.7149C58.6146 85.7255 58.6159 85.7342 58.6169 85.7411C58.6175 85.7446 58.6179 85.7476 58.6183 85.7501C58.6185 85.7514 58.6187 85.7525 58.6189 85.7535C58.6189 85.754 58.6191 85.7547 58.6191 85.7549C58.6192 85.7556 58.6193 85.7562 60.1005 85.5198C61.5818 85.2834 61.5819 85.284 61.582 85.2845C61.582 85.2846 61.5821 85.2851 61.5821 85.2854C61.5822 85.286 61.5823 85.2864 61.5823 85.2867C61.5824 85.2874 61.5825 85.2876 61.5824 85.2874C61.5824 85.2869 61.582 85.2847 61.5814 85.2807C61.5803 85.2729 61.5782 85.2582 61.5754 85.237C61.5698 85.1948 61.5615 85.127 61.5524 85.0371C61.5341 84.8568 61.5131 84.5897 61.5046 84.2617C61.4876 83.5989 61.523 82.7215 61.7189 81.8215C62.1074 80.0361 63.0525 78.3682 65.3501 77.7924L64.6207 74.8824ZM60.1005 85.5198C58.6005 85.5198 58.6005 85.5201 58.6005 85.5205C58.6005 85.5206 58.6005 85.521 58.6005 85.5213C58.6005 85.5219 58.6006 85.5226 58.6006 85.5233C58.6006 85.5249 58.6006 85.5268 58.6006 85.529C58.6006 85.5335 58.6006 85.5394 58.6007 85.5467C58.6008 85.5613 58.6009 85.5814 58.6013 85.607C58.602 85.6582 58.6033 85.7312 58.6059 85.8248C58.6111 86.0121 58.6212 86.2821 58.6412 86.6257C58.6813 87.3128 58.7607 88.2957 58.9185 89.5021C59.2338 91.912 59.8638 95.2292 61.1258 98.8668L63.9601 97.8835C62.7797 94.4813 62.1885 91.3708 61.8932 89.113C61.7457 87.9855 61.6725 87.0746 61.6362 86.4513C61.618 86.1397 61.6091 85.9003 61.6047 85.742C61.6026 85.6629 61.6015 85.6041 61.601 85.5667C61.6008 85.5479 61.6006 85.5346 61.6006 85.5267C61.6006 85.5228 61.6006 85.5203 61.6005 85.5191C61.6005 85.5185 61.6005 85.5183 61.6005 85.5184C61.6005 85.5185 61.6005 85.5186 61.6005 85.5188C61.6005 85.519 61.6005 85.5192 61.6005 85.5193C61.6005 85.5195 61.6005 85.5198 60.1005 85.5198ZM61.1258 98.8668C62.4308 102.628 64.5424 105.551 66.3104 107.525C67.1971 108.515 68.0054 109.275 68.5976 109.792C68.8939 110.051 69.137 110.25 69.3097 110.386C69.3961 110.454 69.465 110.507 69.5142 110.544C69.5389 110.563 69.5586 110.578 69.5732 110.589C69.5804 110.594 69.5864 110.598 69.5911 110.602C69.5934 110.603 69.5954 110.605 69.5971 110.606C69.5979 110.607 69.5987 110.607 69.5994 110.608C69.5997 110.608 69.6001 110.608 69.6003 110.608C69.6007 110.609 69.6011 110.609 70.4808 109.394C71.3605 108.179 71.3609 108.179 71.3612 108.18C71.3613 108.18 71.3616 108.18 71.3618 108.18C71.3621 108.18 71.3623 108.18 71.3625 108.181C71.3628 108.181 71.3628 108.181 71.3625 108.181C71.3619 108.18 71.36 108.179 71.3568 108.176C71.3504 108.172 71.339 108.163 71.3228 108.151C71.2903 108.126 71.2387 108.087 71.1701 108.033C71.0327 107.924 70.8274 107.757 70.5704 107.532C70.0558 107.083 69.3377 106.409 68.5451 105.524C66.9548 103.748 65.0976 101.162 63.9601 97.8835L61.1258 98.8668ZM70.4808 109.394C69.6097 108.173 69.6097 108.173 69.6096 108.173C69.6095 108.173 69.6094 108.173 69.6093 108.173C69.6089 108.173 69.6086 108.174 69.6079 108.174C69.6068 108.175 69.605 108.176 69.6027 108.178C69.598 108.181 69.591 108.186 69.5818 108.193C69.5633 108.206 69.5357 108.226 69.4995 108.252C69.4271 108.303 69.3202 108.379 69.1818 108.478C68.9051 108.676 68.503 108.962 68.001 109.321C66.997 110.037 65.5938 111.038 63.9968 112.177C60.8029 114.455 56.8339 117.287 53.734 119.498L55.4762 121.94C58.5761 119.729 62.5451 116.898 65.739 114.619C67.336 113.48 68.7392 112.479 69.7432 111.763C70.2452 111.405 70.6474 111.118 70.924 110.92C71.0624 110.822 71.1693 110.745 71.2417 110.694C71.2779 110.668 71.3055 110.648 71.324 110.635C71.3332 110.629 71.3402 110.624 71.3449 110.62C71.3472 110.619 71.349 110.617 71.3501 110.616C71.3507 110.616 71.3512 110.616 71.3515 110.616C71.3516 110.615 71.3517 110.615 71.3518 110.615C71.3519 110.615 71.3519 110.615 70.4808 109.394ZM121.161 137.16C121.275 138.656 121.275 138.656 121.276 138.656C121.276 138.656 121.277 138.655 121.277 138.655C121.279 138.655 121.281 138.655 121.283 138.655C121.288 138.655 121.294 138.654 121.303 138.653C121.319 138.652 121.343 138.65 121.375 138.648C121.437 138.642 121.528 138.634 121.646 138.624C121.881 138.602 122.222 138.569 122.653 138.522C123.516 138.428 124.743 138.278 126.206 138.054C129.125 137.606 133.018 136.856 136.858 135.65C140.671 134.453 144.566 132.764 147.387 130.372C150.257 127.937 152.119 124.664 151.451 120.483L148.489 120.956C148.945 123.814 147.767 126.116 145.447 128.084C143.076 130.094 139.628 131.636 135.959 132.788C132.315 133.933 128.584 134.654 125.751 135.088C124.337 135.305 123.155 135.45 122.328 135.54C121.915 135.585 121.591 135.616 121.373 135.636C121.263 135.646 121.18 135.653 121.125 135.658C121.098 135.66 121.077 135.662 121.064 135.663C121.058 135.663 121.053 135.664 121.05 135.664C121.049 135.664 121.048 135.664 121.047 135.664C121.047 135.664 121.047 135.664 121.047 135.664C121.047 135.664 121.047 135.664 121.161 137.16ZM151.451 120.483C151.104 118.307 150.294 116.545 148.946 115.352C147.581 114.145 145.85 113.685 144.001 113.765C140.412 113.921 136.038 116.111 131.549 119.525L133.365 121.913C137.73 118.593 141.489 116.877 144.131 116.762C145.397 116.707 146.306 117.022 146.958 117.599C147.627 118.191 148.212 119.224 148.489 120.956L151.451 120.483ZM131.891 119.33C128.99 120.512 126.27 121.176 124.274 121.544C123.277 121.727 122.466 121.836 121.909 121.899C121.631 121.93 121.417 121.95 121.275 121.961C121.204 121.967 121.151 121.971 121.118 121.973C121.101 121.975 121.09 121.975 121.083 121.976C121.079 121.976 121.077 121.976 121.076 121.976C121.075 121.976 121.075 121.976 121.075 121.976C121.076 121.976 121.076 121.976 121.076 121.976C121.076 121.976 121.076 121.976 121.076 121.976C121.077 121.976 121.077 121.976 121.161 123.474C121.245 124.971 121.245 124.971 121.246 124.971C121.246 124.971 121.246 124.971 121.246 124.971C121.247 124.971 121.247 124.971 121.248 124.971C121.25 124.971 121.251 124.971 121.253 124.971C121.258 124.971 121.263 124.97 121.27 124.97C121.283 124.969 121.301 124.968 121.325 124.966C121.371 124.963 121.438 124.958 121.522 124.951C121.692 124.937 121.936 124.915 122.245 124.88C122.863 124.81 123.744 124.692 124.817 124.494C126.96 124.099 129.887 123.386 133.023 122.108L131.891 119.33ZM62.2979 120.296C56.8104 117.552 51.375 119.299 48.6343 120.215L49.5851 123.06C52.3398 122.139 56.674 120.838 60.9562 122.979L62.2979 120.296ZM39.6453 134.493C39.3095 135.955 39.3091 135.954 39.3088 135.954C39.3087 135.954 39.3084 135.954 39.3082 135.954C39.3078 135.954 39.3075 135.954 39.3072 135.954C39.3066 135.954 39.3062 135.954 39.3059 135.954C39.3053 135.954 39.3054 135.954 39.3061 135.954C39.3076 135.954 39.3115 135.955 39.3179 135.957C39.3306 135.96 39.3531 135.965 39.3847 135.974C39.448 135.99 39.5477 136.018 39.6795 136.057C39.9433 136.137 40.3338 136.265 40.8152 136.454C41.7801 136.832 43.0965 137.45 44.4843 138.398L46.1771 135.922C44.565 134.82 43.0387 134.104 41.9109 133.661C41.3459 133.439 40.8776 133.285 40.5441 133.185C40.3772 133.134 40.2438 133.098 40.1485 133.073C40.1008 133.06 40.0627 133.05 40.0346 133.043C40.0206 133.04 40.0091 133.037 40.0001 133.035C39.9957 133.034 39.9919 133.033 39.9887 133.032C39.9871 133.032 39.9857 133.032 39.9845 133.031C39.9838 133.031 39.9833 133.031 39.9827 133.031C39.9824 133.031 39.9821 133.031 39.9819 133.031C39.9816 133.031 39.9812 133.031 39.6453 134.493ZM44.4843 138.398C48.1391 140.896 52.3771 145.729 51.886 154.92L54.8818 155.08C55.4383 144.665 50.538 138.902 46.1771 135.922L44.4843 138.398ZM48.6343 120.215C48.5884 120.23 48.655 120.204 48.7485 120.24C48.8 120.26 48.7582 120.262 48.6219 120.107C48.4851 119.951 48.3325 119.731 48.125 119.407C47.937 119.113 47.6908 118.712 47.431 118.341C46.909 117.596 46.1317 116.663 44.9081 116.202C43.6338 115.722 42.1861 115.861 40.555 116.597L41.7887 119.332C42.9468 118.809 43.5424 118.893 43.8501 119.009C44.2086 119.144 44.5518 119.46 44.9736 120.062C45.1856 120.364 45.367 120.662 45.598 121.023C45.8094 121.354 46.0671 121.744 46.3675 122.086C46.6683 122.429 47.0905 122.816 47.6686 123.039C48.2885 123.278 48.944 123.274 49.5851 123.06L48.6343 120.215ZM40.555 116.597C38.2545 117.635 37.833 120.055 37.9716 122.126C38.1155 124.274 38.8764 126.765 39.7606 129.048C40.6552 131.357 41.7236 133.572 42.5629 135.201C42.9837 136.018 43.3495 136.693 43.611 137.165C43.7418 137.401 43.8467 137.587 43.9194 137.715C43.9557 137.778 43.9841 137.828 44.0037 137.862C44.0134 137.879 44.021 137.892 44.0263 137.901C44.029 137.905 44.0311 137.909 44.0325 137.912C44.0333 137.913 44.0339 137.914 44.0343 137.915C44.0346 137.915 44.0348 137.915 44.0349 137.916C44.0351 137.916 44.0353 137.916 45.3307 137.16C46.6261 136.404 46.6261 136.404 46.6262 136.404C46.6261 136.404 46.6262 136.404 46.6261 136.404C46.6259 136.403 46.6257 136.403 46.6252 136.402C46.6244 136.401 46.6229 136.398 46.6209 136.395C46.6169 136.388 46.6106 136.377 46.6021 136.362C46.5852 136.333 46.5595 136.288 46.5259 136.229C46.4588 136.112 46.3598 135.936 46.2353 135.712C45.9861 135.262 45.6348 134.614 45.2299 133.828C44.4178 132.251 43.4005 130.139 42.5581 127.964C41.7053 125.762 41.0779 123.612 40.9649 121.925C40.8468 120.161 41.3 119.552 41.7887 119.332L40.555 116.597ZM135.815 143.195C136.989 144.129 136.989 144.129 136.989 144.129C136.989 144.129 136.989 144.129 136.989 144.129C136.99 144.129 136.99 144.129 136.99 144.128C136.99 144.128 136.991 144.127 136.991 144.126C136.993 144.125 136.994 144.123 136.997 144.12C137.001 144.114 137.008 144.106 137.016 144.096C137.032 144.075 137.056 144.045 137.086 144.006C137.147 143.929 137.233 143.818 137.34 143.678C137.554 143.401 137.849 143.011 138.177 142.561C138.822 141.677 139.634 140.507 140.186 139.495L137.551 138.06C137.099 138.89 136.384 139.929 135.754 140.793C135.444 141.218 135.164 141.587 134.962 141.85C134.861 141.981 134.78 142.085 134.725 142.156C134.697 142.191 134.676 142.218 134.661 142.236C134.654 142.245 134.649 142.252 134.646 142.256C134.644 142.258 134.643 142.26 134.642 142.261C134.642 142.261 134.642 142.261 134.642 142.261C134.641 142.262 134.641 142.262 134.641 142.262L134.641 142.261C134.642 142.261 134.642 142.261 135.815 143.195ZM140.186 139.495C140.89 138.202 141.534 136.497 141.989 135.173C142.221 134.499 142.411 133.902 142.543 133.473C142.609 133.258 142.661 133.084 142.697 132.963C142.715 132.903 142.729 132.856 142.738 132.823C142.743 132.807 142.746 132.794 142.749 132.785C142.75 132.781 142.751 132.777 142.752 132.775C142.752 132.774 142.753 132.773 142.753 132.772C142.753 132.772 142.753 132.771 142.753 132.771C142.753 132.771 142.753 132.771 142.753 132.771C142.753 132.771 142.753 132.77 141.311 132.359C139.868 131.947 139.868 131.947 139.868 131.947C139.868 131.947 139.868 131.947 139.868 131.947C139.868 131.947 139.868 131.947 139.868 131.947C139.868 131.948 139.868 131.948 139.868 131.949C139.868 131.95 139.867 131.953 139.866 131.956C139.864 131.963 139.861 131.973 139.857 131.987C139.849 132.015 139.836 132.058 139.82 132.113C139.787 132.224 139.739 132.386 139.676 132.589C139.551 132.995 139.371 133.561 139.152 134.198C138.707 135.494 138.129 136.999 137.551 138.06L140.186 139.495ZM158.667 76.8464C162.998 88.8514 162.328 103.959 156.818 113.098L159.387 114.647C165.471 104.557 166.049 88.4676 161.489 75.8284L158.667 76.8464ZM156.818 113.098C155.282 115.646 151.961 117.85 149.224 119.418L150.716 122.021C153.415 120.474 157.402 117.94 159.387 114.647L156.818 113.098ZM158.102 113.873C158.125 115.373 158.125 115.373 158.125 115.373C158.125 115.373 158.125 115.373 158.125 115.373C158.125 115.373 158.126 115.373 158.126 115.373C158.128 115.373 158.13 115.373 158.132 115.373C158.138 115.373 158.146 115.372 158.158 115.372C158.181 115.372 158.215 115.372 158.261 115.371C158.353 115.37 158.489 115.369 158.664 115.369C159.014 115.368 159.519 115.368 160.135 115.376C161.369 115.391 163.042 115.433 164.804 115.541C166.572 115.649 168.399 115.822 169.953 116.091C171.586 116.375 172.655 116.726 173.116 117.05L174.84 114.594C173.775 113.846 172.095 113.418 170.466 113.135C168.757 112.839 166.806 112.658 164.987 112.547C163.162 112.435 161.438 112.392 160.172 112.376C159.538 112.368 159.018 112.368 158.655 112.369C158.473 112.369 158.331 112.37 158.233 112.371C158.184 112.372 158.146 112.372 158.121 112.373C158.108 112.373 158.098 112.373 158.091 112.373C158.088 112.373 158.085 112.373 158.083 112.373C158.082 112.373 158.081 112.373 158.081 112.373C158.081 112.373 158.08 112.373 158.08 112.373C158.08 112.373 158.08 112.373 158.102 113.873ZM173.116 117.05C174.347 117.914 174.86 118.965 174.883 119.803C174.904 120.576 174.518 121.469 173.258 122.158L174.698 124.79C176.797 123.642 177.937 121.78 177.882 119.722C177.828 117.729 176.662 115.873 174.84 114.594L173.116 117.05ZM138.514 145.132C140.868 145.706 142.63 146.442 144.068 147.532L145.88 145.141C144 143.716 141.809 142.847 139.223 142.218L138.514 145.132ZM144.068 147.532C145.818 148.858 147.241 150.822 148.585 154.047L151.354 152.892C149.888 149.377 148.196 146.896 145.88 145.141L144.068 147.532ZM173.258 122.158C172.789 122.414 172.303 122.476 171.604 122.376C170.808 122.263 170.018 121.998 168.783 121.677C166.401 121.06 163.321 120.547 159.12 122.063L160.138 124.885C163.569 123.646 165.985 124.051 168.03 124.581C169.008 124.835 170.164 125.201 171.181 125.346C172.295 125.505 173.488 125.451 174.698 124.79L173.258 122.158ZM158.697 122.298C154.444 125.669 150.66 131.626 147.987 136.566C146.634 139.066 145.535 141.362 144.775 143.034C144.395 143.87 144.099 144.552 143.896 145.026C143.795 145.263 143.718 145.448 143.665 145.576C143.639 145.639 143.619 145.688 143.605 145.722C143.598 145.739 143.593 145.751 143.589 145.76C143.588 145.765 143.586 145.769 143.585 145.771C143.585 145.772 143.584 145.773 143.584 145.774C143.584 145.774 143.584 145.775 143.583 145.775C143.583 145.775 143.583 145.776 144.974 146.337C146.366 146.898 146.366 146.898 146.365 146.898C146.366 146.898 146.365 146.898 146.366 146.898C146.366 146.897 146.366 146.897 146.366 146.896C146.367 146.895 146.368 146.892 146.369 146.889C146.372 146.882 146.376 146.871 146.382 146.856C146.394 146.827 146.413 146.782 146.437 146.723C146.486 146.605 146.56 146.429 146.656 146.202C146.85 145.747 147.137 145.088 147.506 144.276C148.245 142.65 149.313 140.418 150.625 137.994C153.282 133.085 156.825 127.61 160.561 124.649L158.697 122.298ZM96.4984 128.278C97.4015 128.047 98.3627 127.857 99.386 127.714L98.9723 124.743C97.8423 124.9 96.7704 125.111 95.7538 125.372L96.4984 128.278ZM97.6058 126.579C97.0409 123.183 94.4366 117.809 89.8103 114.829C87.4522 113.309 84.5653 112.413 81.2061 112.741C77.8652 113.068 74.1797 114.593 70.1728 117.697L72.01 120.068C75.6974 117.212 78.8611 115.985 81.4979 115.727C84.1163 115.471 86.3356 116.159 88.1854 117.35C91.9749 119.792 94.1937 124.35 94.6465 127.071L97.6058 126.579ZM80.2505 153.47C81.7386 153.282 81.7387 153.282 81.7387 153.282C81.7387 153.282 81.7387 153.283 81.7388 153.283C81.7388 153.283 81.7388 153.283 81.7388 153.283C81.7389 153.283 81.7388 153.283 81.7388 153.283C81.7387 153.282 81.7385 153.28 81.7381 153.277C81.7374 153.272 81.7362 153.261 81.7345 153.246C81.7312 153.217 81.7261 153.17 81.7199 153.107C81.7073 152.981 81.6901 152.789 81.6729 152.54C81.6383 152.041 81.6038 151.313 81.6063 150.415C81.6113 148.615 81.7651 146.16 82.3536 143.522L79.4256 142.869C78.7776 145.773 78.6117 148.455 78.6063 150.407C78.6036 151.385 78.6412 152.186 78.68 152.747C78.6994 153.028 78.7192 153.249 78.7345 153.404C78.7422 153.481 78.7487 153.541 78.7536 153.584C78.756 153.605 78.7579 153.622 78.7594 153.634C78.7602 153.64 78.7608 153.645 78.7613 153.649C78.7615 153.651 78.7617 153.653 78.7619 153.654C78.762 153.655 78.762 153.656 78.7621 153.656C78.7621 153.656 78.7622 153.657 78.7622 153.657C78.7622 153.657 78.7623 153.657 80.2505 153.47ZM82.3536 143.522C83.7044 137.468 87.2748 130.641 96.4984 128.278L95.7538 125.372C85.0417 128.116 80.9187 136.177 79.4256 142.869L82.3536 143.522ZM70.1728 117.697C63.0179 123.24 61.1598 130.793 63.6031 136.693C66.055 142.615 72.6285 146.356 81.1803 144.667L80.599 141.724C73.2466 143.176 68.2042 139.964 66.3748 135.546C64.5367 131.106 65.7316 124.932 72.01 120.068L70.1728 117.697Z" fill="#86C232"/>
</svg>
